<svg width="42" height="42" viewBox="0 0 42 42" fill="none" xmlns="http://www.w3.org/2000/svg">
<path d="M35.2829 0.859375H6.8838C3.63944 0.859375 1 3.49174 1 6.7274V35.0504C1 38.2861 3.63944 40.9185 6.8838 40.9185H35.2829C38.5273 40.9185 41.1667 38.2861 41.1667 35.0504V6.7274C41.1667 3.49174 38.5273 0.859375 35.2829 0.859375ZM38.8132 35.0504C38.8132 36.9918 37.2295 38.5712 35.2829 38.5712H6.8838C4.93724 38.5712 3.35352 36.9918 3.35352 35.0504V6.7274C3.35352 4.78606 4.93724 3.20659 6.8838 3.20659H35.2829C37.2295 3.20659 38.8132 4.78606 38.8132 6.7274V35.0504Z" fill="black" stroke="black" stroke-width="0.5"/>
<path d="M32.1279 29.8955C30.6913 29.8955 29.2649 29.8955 27.8164 29.8955C27.8164 29.8262 27.8164 29.7616 27.8164 29.6969C27.8164 27.3624 27.8161 25.0279 27.8167 22.6937C27.8167 22.1968 27.7798 21.7061 27.655 21.2215C27.1396 19.2229 24.9138 19.3397 24.0283 20.2869C23.5833 20.7629 23.2926 21.3009 23.2803 21.9657C23.2775 22.1239 23.2683 22.2824 23.2683 22.4405C23.2674 24.8566 23.2677 27.2729 23.2677 29.6889C23.2677 29.7542 23.2677 29.8195 23.2677 29.8943C21.8253 29.8943 20.3992 29.8943 18.9639 29.8943C18.9639 25.4389 18.9639 20.9882 18.9639 16.5292C20.3967 16.5292 21.8228 16.5292 23.2655 16.5292C23.2655 17.1328 23.2655 17.7274 23.2655 18.3221C23.2769 18.327 23.2883 18.3322 23.2999 18.3371C23.3307 18.2954 23.362 18.2543 23.3924 18.2123C23.8237 17.6134 24.3191 17.0825 24.9774 16.7235C25.7126 16.3223 26.5068 16.1877 27.3333 16.2116C28.2283 16.2377 29.0775 16.4391 29.8428 16.9206C30.8238 17.538 31.4216 18.4413 31.7717 19.5249C32.0446 20.3693 32.134 21.2405 32.135 22.1227C32.1371 24.6613 32.1359 27.2002 32.1356 29.7389C32.1356 29.7885 32.131 29.8382 32.1279 29.8955Z" fill="black"/>
<path d="M16.3342 29.9028C14.9026 29.9028 13.4848 29.9028 12.0535 29.9028C12.0535 25.445 12.0535 20.9896 12.0535 16.5254C13.4768 16.5254 14.8986 16.5254 16.3342 16.5254C16.3342 20.9792 16.3342 25.4343 16.3342 29.9028Z" fill="black"/>
<path d="M14.3771 9.87305C15.7249 9.87121 16.6786 10.8297 16.6832 12.1906C16.6875 13.5371 15.7193 14.4901 14.3455 14.4907C13.0045 14.4916 12.0484 13.5329 12.0459 12.1854C12.0434 10.837 13.0134 9.87489 14.3771 9.87305Z" fill="black"/>
</svg>
