<svg width="40" height="40" viewBox="0 0 40 40" fill="none" xmlns="http://www.w3.org/2000/svg">
<path d="M11.3564 0.00961026C5.10476 0.00961026 0 5.22925 0 11.6216V28.4052C0 34.788 5.10476 39.998 11.3564 39.998H27.7706C34.0129 39.998 39.1083 34.7784 39.1083 28.386V11.612C39.1083 5.21964 34.0129 0 27.7612 0H11.3564V0.00961026ZM11.3564 3.08565H27.7612C32.3865 3.08565 36.0999 6.88262 36.0999 11.6216V28.3956C36.0999 33.1346 32.3865 36.9316 27.7706 36.9316H11.3564C6.72173 36.9316 3.00833 33.1346 3.00833 28.4149V11.6312C3.01773 6.88262 6.73113 3.08565 11.3564 3.08565ZM31.5968 6.16168C30.7601 6.16168 30.0927 6.84418 30.0927 7.6997C30.0927 8.55522 30.7601 9.23772 31.5968 9.23772C32.4335 9.23772 33.101 8.55522 33.101 7.6997C33.101 6.84418 32.4335 6.16168 31.5968 6.16168ZM19.5635 9.23772C13.7725 9.23772 9.03438 14.0825 9.03438 20.0038C9.03438 25.9252 13.7725 30.7699 19.5635 30.7699C25.3546 30.7699 30.0927 25.9252 30.0927 20.0038C30.0927 14.0825 25.3546 9.23772 19.5635 9.23772ZM19.5635 12.3137C23.7376 12.3137 27.0843 15.7358 27.0843 20.0038C27.0843 24.2718 23.7376 27.6939 19.5635 27.6939C15.3895 27.6939 12.0427 24.2718 12.0427 20.0038C12.0427 15.7358 15.3895 12.3137 19.5635 12.3137Z" fill="#090909"/>
</svg>
