<?xml version="1.0" ?><svg enable-background="new 0 0 504 504" id="Layer_1" version="1.1" viewBox="0 0 504 504" xml:space="preserve" xmlns="http://www.w3.org/2000/svg" xmlns:xlink="http://www.w3.org/1999/xlink"><path d="M452.2,251.6c-9.2,58.5-27.1,75.6-58.8,114.9c-31.7,33.3-77.3,88.9-141.9,85.8  c-58.5-9.2-75.6-27.1-114.9-58.8c-33.3-31.7-88.9-77.3-85.8-141.9c9.2-58.5,27.1-75.6,58.8-114.9c31.7-33.3,77.3-88.9,141.9-85.8  c58.5,9.2,75.6,27.1,114.9,58.8C399.7,141.4,455.3,187,452.2,251.6z" fill="#3765AF"/><path d="M251.6,368.5c-3.1,0-6.2-0.8-8.9-2.4l-28.2-16.7c-4.2-2.4-2.2-3.2-0.8-3.7c5.6-2,6.8-2.4,12.8-5.8  c0.6-0.4,1.5-0.2,2.1,0.2l21.7,12.9c0.8,0.4,1.9,0.4,2.6,0l84.5-48.8c0.8-0.4,1.3-1.4,1.3-2.3v-97.5c0-1-0.5-1.8-1.3-2.3l-84.5-48.7  c-0.8-0.5-1.8-0.5-2.6,0l-84.4,48.7c-0.8,0.5-1.3,1.4-1.3,2.3v97.5c0,0.9,0.5,1.8,1.3,2.3l23.1,13.4c12.6,6.3,20.2-1.1,20.2-8.5  v-96.3c0-1.4,1.1-2.4,2.5-2.4h10.7c1.3,0,2.4,1.1,2.4,2.4V309c0,16.8-9.1,26.4-25,26.4c-4.9,0-8.7,0-19.5-5.3l-22.2-12.8  c-5.5-3.2-8.9-9.1-8.9-15.4v-97.5c0-6.3,3.4-12.2,8.9-15.4l84.5-48.8c5.3-3,12.5-3,17.8,0l84.5,48.8c5.5,3.2,8.9,9.1,8.9,15.4v97.5  c0,6.3-3.4,12.2-8.9,15.4l-84.5,48.8C257.8,367.6,254.7,368.5,251.6,368.5z" fill="#FFFFFF"/><path d="M277.7,301.3c-37,0-44.7-17-44.7-31.2c0-1.4,1.1-2.4,2.4-2.4h10.9c1.2,0,2.2,0.9,2.4,2.1  c1.6,11.1,6.6,16.7,28.9,16.7c17.8,0,25.4-4,25.4-13.5c0-5.4-2.1-9.5-29.8-12.2c-23.1-2.3-37.4-7.4-37.4-25.9  c0-17,14.4-27.2,38.5-27.2c27.1,0,40.5,9.4,42.2,29.5c0.1,0.7-0.2,1.4-0.6,1.9c-0.5,0.5-1.1,0.8-1.8,0.8h-11c-1.1,0-2.1-0.8-2.4-1.9  c-2.6-11.7-9-15.4-26.4-15.4c-19.4,0-21.7,6.8-21.7,11.8c0,6.1,2.7,7.9,28.9,11.4c26,3.4,38.3,8.3,38.3,26.5  C319.8,290.7,304.4,301.3,277.7,301.3z" fill="#FFFFFF"/></svg>