<svg width="22" height="21" viewBox="0 0 22 21" fill="none" xmlns="http://www.w3.org/2000/svg">
<path d="M10.0853 1.18966C10.3851 0.269381 11.687 0.269382 11.9869 1.18966L13.738 6.56406C13.8721 6.97568 14.2559 7.25426 14.6888 7.25426H20.3495C21.3189 7.25426 21.7213 8.49529 20.9363 9.06405L16.3614 12.3787C16.0099 12.6333 15.8629 13.0856 15.9973 13.4983L17.7459 18.8649C18.0459 19.7858 16.9926 20.5527 16.2084 19.9845L11.6228 16.6621C11.2728 16.4085 10.7994 16.4085 10.4494 16.6621L5.86382 19.9845C5.07956 20.5527 4.02627 19.7858 4.3263 18.8649L6.07487 13.4983C6.20932 13.0856 6.06224 12.6333 5.71078 12.3787L1.13591 9.06405C0.350903 8.49529 0.753233 7.25426 1.72263 7.25426H7.38338C7.81631 7.25426 8.20007 6.97568 8.33419 6.56406L10.0853 1.18966Z" fill="black"/>
</svg>
