<svg width="21" height="21" viewBox="0 0 21 21" fill="none" xmlns="http://www.w3.org/2000/svg">
<path d="M9.47371 1.2131C9.77356 0.292819 11.0755 0.29282 11.3753 1.2131L13.1264 6.58749C13.2605 6.99912 13.6443 7.2777 14.0772 7.2777H19.738C20.7074 7.2777 21.1097 8.51873 20.3247 9.08749L15.7498 12.4021C15.3984 12.6568 15.2513 13.1091 15.3857 13.5217L17.1343 18.8884C17.4343 19.8092 16.381 20.5762 15.5968 20.0079L11.0112 16.6856C10.6612 16.432 10.1878 16.432 9.8378 16.6856L5.25225 20.0079C4.46799 20.5762 3.4147 19.8092 3.71472 18.8884L5.4633 13.5217C5.59775 13.1091 5.45067 12.6568 5.09921 12.4021L0.524337 9.08749C-0.26067 8.51873 0.141661 7.2777 1.11106 7.2777H6.77181C7.20474 7.2777 7.5885 6.99912 7.72261 6.58749L9.47371 1.2131Z" fill="#E5E5E5"/>
</svg>
